<svg xmlns="http://www.w3.org/2000/svg" width="125" height="125" viewBox="0 0 125 125" fill="none">
  <path fill-rule="evenodd" clip-rule="evenodd" d="M106.053 61.2974C105.699 60.3796 102.656 59.9931 93.5102 59.6711C84.9762 59.3652 75.0414 58.4796 57.6837 58.9626C44.4158 59.333 27.8954 60.8143 27.8954 61.6355C27.8954 62.2313 28.5394 62.2474 34.6903 61.716C40.3743 61.233 43.2887 61.1203 46.8472 60.9914C32.581 62.2474 29.5377 63.0686 21.9377 63.8576C17.1716 64.3567 19.9572 65.7898 21.6962 65.6449C21.7123 65.6449 43.8844 63.8415 45.9777 63.9381C46.1709 63.9542 44.0616 64.244 41.276 64.5821C33.4988 65.5482 34.9963 67.1583 40.8251 66.4176C60.4371 63.9218 78.8898 63.1489 93.1076 64.2277C97.6 64.5659 98.0992 64.5659 98.0992 64.1472C98.0992 63.4065 96.8755 62.8431 94.9594 62.7304C91.9644 62.5372 80.4355 61.9896 75.2185 61.8286C74.816 61.8125 75.0092 61.5067 75.3635 61.4745C77.4889 61.2652 94.3636 61.426 100.998 61.6515C105.876 61.8125 106.231 61.7965 106.053 61.2974Z" fill="#252525"/>
</svg>
