<svg width="58" height="58" viewBox="0 0 58 58" fill="none" xmlns="http://www.w3.org/2000/svg">
<path fill-rule="evenodd" clip-rule="evenodd" d="M31.5121 6.83632C26.5349 9.36527 15.3159 21.8486 11.657 28.8436C9.45091 33.0675 9.72003 33.3096 16.8495 33.7132L21.9343 34.0091C12.7063 50.1513 13.6479 48.4295 13.5672 48.5909C11.5494 52.0615 14.2936 54.3752 17.1992 51.6579C17.2261 51.631 42.1659 32.2603 46.6319 25.8304C47.1431 25.104 47.0086 24.2699 45.8786 23.4359C44.0223 22.0638 41.5202 21.6334 32.3998 20.8801C30.9739 20.7724 30.3283 20.611 30.4359 20.3958C31.1085 18.7547 33.6912 11.8673 34.9288 9.17693C36.3816 6.0292 36.2471 4.41498 31.5121 6.83632ZM29.6556 12.8628C29.4135 13.4277 26.4271 20.5841 26.2926 20.8801C25.5931 22.2791 26.0505 23.0055 27.7993 23.1938C33.6105 23.8126 35.9242 24.0278 38.2648 24.1354C42.1389 24.3238 42.1659 24.1623 38.0765 28.2786C33.7181 32.6908 22.58 42.9142 22.3379 42.6721C22.1226 42.4569 25.7008 35.6233 26.6694 34.3589C28.4181 32.072 27.88 31.7492 22.3109 31.7492C19.8089 31.7492 18.2485 31.6954 17.0647 31.6147C15.9616 31.5339 15.289 30.3502 15.8271 29.3547C17.8449 25.6689 21.45 21.0684 27.4496 14.477C30.1937 11.5176 30.2475 11.4638 29.6556 12.8628Z" fill="#252525"/>
</svg>
