<svg width="99" height="99" viewBox="0 0 99 99" fill="none" xmlns="http://www.w3.org/2000/svg">
<path d="M65.6291 51.0262H84.9753C84.6453 70.2899 80.8503 73.4662 69.0116 80.4787C67.6503 81.3037 67.1966 83.0362 68.0216 84.4387C68.8466 85.7999 70.5791 86.2537 71.9816 85.4287C85.9241 77.1787 90.7916 72.1462 90.7916 48.1387V25.9049C90.7916 18.8512 85.0578 13.1587 78.0453 13.1587H65.6703C58.4103 13.1587 52.9241 18.6449 52.9241 25.9049V38.2799C52.8828 45.5399 58.3691 51.0262 65.6291 51.0262Z" fill="#252525"/>
<path d="M20.9962 51.0262H40.3425C40.0125 70.2899 36.2175 73.4662 24.3787 80.4787C23.0175 81.3037 22.5637 83.0362 23.3887 84.4387C24.2137 85.7999 25.9462 86.2537 27.3487 85.4287C41.2912 77.1787 46.1587 72.1462 46.1587 48.1387V25.9049C46.1587 18.8512 40.425 13.1587 33.4125 13.1587H21.0375C13.7362 13.1587 8.25 18.6449 8.25 25.9049V38.2799C8.25 45.5399 13.7362 51.0262 20.9962 51.0262Z" fill="#252525"/>
</svg>
