<svg width="231" height="225" viewBox="0 0 231 225" fill="none" xmlns="http://www.w3.org/2000/svg">
<path d="M145.338 174.052C120.248 188.538 89.5176 186.445 66.6463 168.817C64.7195 169.274 62.9136 169.662 61.256 169.953L59.5489 170.251L47.6469 154.119L22.2327 152.716C20.3473 152.612 18.7078 151.54 17.8444 149.858C16.989 148.172 17.0841 146.216 18.1095 144.625L24.2355 135.128L14.5511 120.884C13.7197 119.667 13.4444 118.205 13.7668 116.773C14.0938 115.349 14.9985 114.107 16.263 113.377C17.0524 112.921 17.9626 112.675 18.8878 112.678L39.01 112.691C39.0103 87.3566 52.4172 64.0012 74.4462 51.2828C96.4751 38.5643 123.413 38.6266 145.345 51.2981L155.395 33.8652C155.855 33.0626 156.524 32.3975 157.313 31.9417C158.569 31.2163 160.101 31.041 161.502 31.4778C162.903 31.9145 164.027 32.8762 164.67 34.2127L172.164 49.7217L183.452 49.165C185.342 49.0724 187.083 49.9679 188.116 51.5518C189.148 53.1357 189.245 55.0883 188.396 56.781L176.905 79.4922L184.925 97.8656L183.813 99.1949C182.732 100.485 181.498 101.863 180.134 103.295C183.964 131.916 170.412 159.576 145.322 174.062L145.338 174.052Z" fill="#A8A5A1"/>
<path d="M143.033 173.299C117.944 187.784 87.2129 185.691 64.3416 168.064C62.4149 168.521 60.6089 168.908 58.9513 169.2L57.2442 169.498L45.3422 153.366L19.928 151.962C18.0426 151.859 16.4032 150.786 15.5397 149.105C14.6843 147.418 14.7794 145.463 15.8048 143.872L21.9308 134.375L12.2464 120.131C11.415 118.914 11.1397 117.451 11.4621 116.019C11.7891 114.595 12.6938 113.354 13.9583 112.623C14.7477 112.168 15.6579 111.921 16.5831 111.924L36.7053 111.937C36.7056 86.6032 50.1125 63.2478 72.1415 50.5293C94.1704 37.8109 121.108 37.8732 143.04 50.5447L153.09 33.1118C153.55 32.3092 154.219 31.6441 155.008 31.1883C156.265 30.4629 157.796 30.2876 159.197 30.7244C160.598 31.1611 161.723 32.1228 162.366 33.4593L169.859 48.9683L181.147 48.4116C183.037 48.319 184.779 49.2145 185.811 50.7984C186.844 52.3823 186.94 54.3349 186.092 56.0276L174.6 78.7388L182.62 97.1122L181.508 98.4415C180.427 99.7314 179.193 101.11 177.829 102.542C181.66 131.163 168.107 158.823 143.017 173.308L143.033 173.299Z" fill="white"/>
<path d="M141.722 58.4445L155.515 34.5118C156.504 32.8023 158.998 32.8985 159.858 34.6678L167.447 50.3794C167.876 51.2704 168.792 51.8154 169.78 51.7603L181.288 51.1945C183.17 51.1065 184.455 53.0711 183.602 54.7557L165.872 89.8002L141.722 58.4445Z" fill="#C7212D"/>
<path d="M158.531 48.9104L140.055 55.5613L160.663 71.929L158.531 48.9104Z" fill="#781C42"/>
<path d="M44.2242 114.741L16.6013 114.719C14.6263 114.721 13.4629 116.929 14.565 118.558L24.3771 132.987C24.9345 133.803 24.9484 134.869 24.4065 135.697L18.1625 145.381C17.1452 146.967 18.2043 149.062 20.0897 149.165L59.3043 151.332L44.2242 114.741Z" fill="#C7212D"/>
<path d="M27.5517 124.537L42.5577 111.857L46.4206 137.893L27.5517 124.537Z" fill="#781C42"/>
<path d="M141.634 170.883C174.2 152.08 185.358 110.438 166.556 77.8715C147.754 45.305 106.111 34.1469 73.5449 52.9492C40.9784 71.7514 29.8203 113.394 48.6226 145.96C67.4248 178.527 109.067 189.685 141.634 170.883Z" fill="#FFC960"/>
<path d="M44.935 108.168C44.8625 108.21 44.776 108.227 44.6883 108.224C44.4414 108.206 44.2582 108 44.2767 107.753C45.2749 92.7969 51.5255 78.6422 61.8808 67.8953C62.0496 67.7227 62.3321 67.7099 62.5094 67.8867C62.6821 68.0556 62.6949 68.3381 62.518 68.5154C52.3074 79.1036 46.1493 93.0653 45.1595 107.813C45.1521 107.967 45.0638 108.093 44.935 108.168Z" fill="white"/>
<path d="M69.6003 62.1897C69.407 62.3013 69.1622 62.2493 69.0264 62.07C68.8814 61.8745 68.9147 61.5975 69.1102 61.4524C72.5133 58.8648 76.2431 56.5825 80.119 54.7206C80.3377 54.6158 80.6058 54.7081 80.7105 54.9268C80.8153 55.1455 80.715 55.4182 80.5044 55.5184C76.6895 57.3557 73.0081 59.6101 69.6486 62.1618C69.6325 62.1711 69.6164 62.1804 69.6003 62.1897Z" fill="white"/>
<path d="M158.425 149.845C158.28 149.929 158.084 149.924 157.936 149.816C157.744 149.669 157.694 149.397 157.844 149.192C165.141 139.341 169.372 127.641 170.055 115.358C170.066 115.116 170.28 114.928 170.522 114.938C170.764 114.949 170.952 115.163 170.942 115.405C170.239 127.86 165.964 139.725 158.555 149.716C158.52 149.768 158.469 149.809 158.42 149.837L158.425 149.845Z" fill="white"/>
<path d="M103.642 175.179C103.57 175.221 103.484 175.239 103.396 175.236C96.5934 174.782 89.9383 173.244 83.6167 170.665C83.3902 170.57 83.2829 170.31 83.3695 170.088C83.4643 169.861 83.7245 169.754 83.9464 169.841C90.1779 172.375 96.7359 173.894 103.451 174.345C103.698 174.364 103.881 174.569 103.862 174.816C103.855 174.971 103.767 175.097 103.638 175.171L103.642 175.179Z" fill="white"/>
<path d="M86.6506 63.1381C88.3251 56.5333 96.5922 54.3162 101.344 59.1978C104.767 62.7091 110.417 62.7116 113.844 59.1975C118.597 54.3162 126.868 56.5324 128.543 63.1362C129.754 67.8928 134.64 70.7205 139.369 69.3866C145.925 67.5347 151.984 73.5837 150.123 80.1456C148.79 84.8674 151.617 89.7646 156.373 90.9708C162.978 92.6453 165.195 100.912 160.314 105.664C156.802 109.087 156.8 114.738 160.314 118.164C165.195 122.917 162.979 131.188 156.375 132.864C151.619 134.074 148.791 138.961 150.125 143.689C151.977 150.245 145.928 156.304 139.366 154.444C134.644 153.11 129.747 155.938 128.541 160.694C126.866 167.298 118.599 169.516 113.847 164.634C110.424 161.123 104.774 161.12 101.347 164.634C96.5941 169.515 88.3234 167.299 86.6478 160.695C85.4372 155.939 80.5507 153.111 75.8223 154.445C69.2666 156.297 63.2075 150.248 65.0679 143.686C66.4012 138.964 63.5738 134.067 58.8179 132.861C52.2131 131.186 49.9959 122.919 54.8776 118.168C58.3889 114.744 58.3914 109.094 54.8773 105.667C49.996 100.914 52.2122 92.6436 58.816 90.968C63.5726 89.7575 66.4002 84.8709 65.0664 80.1425C63.2099 73.5787 69.2635 67.5277 75.8254 69.3881C80.5472 70.7214 85.4444 67.894 86.6506 63.1381Z" fill="#E0982A"/>
<path d="M95.1815 79.0349L88.1572 76.6897C87.5449 76.4848 86.9408 76.8336 86.8121 77.4663L85.3309 84.7221L78.4697 84.5381C77.5097 84.5124 77.0767 85.6967 77.7539 86.4978L85.9074 96.0629L104.715 85.2045L100.508 73.3608C100.153 72.3738 98.9105 72.1567 98.4528 73.0008L95.1815 79.0349Z" fill="#FFC960"/>
<path d="M113.847 59.2058C111.751 61.3609 108.813 62.1872 106.063 61.7023C109.49 64.0842 114.251 63.7192 117.274 60.621C119.455 58.3734 122.379 57.652 125.067 58.1407C121.768 55.8678 117.022 55.9443 113.852 59.2139L113.847 59.2058ZM139.372 69.395C138.053 69.77 136.73 69.8036 135.462 69.5796C137.523 71.0102 140.184 71.5463 142.799 70.8102C144.13 70.4385 145.436 70.3935 146.666 70.6072C144.661 69.2191 142.06 68.6378 139.372 69.395ZM159.017 92.1498C158.467 91.7912 157.861 91.4859 157.201 91.2547C157.764 91.6167 158.362 91.9266 159.017 92.1498ZM62.2475 134.284C61.96 134.214 61.6953 134.109 61.4226 134.009C64.536 136.035 66.1394 139.909 65.0661 143.686C63.5839 148.913 67.1403 153.808 71.9615 154.644C69.0709 152.65 67.4037 148.963 68.5009 145.097C69.8342 140.375 67.0068 135.478 62.2509 134.272L62.2475 134.284ZM112.56 163.561C113.013 163.88 113.442 164.233 113.85 164.642C115.218 166.044 116.875 166.848 118.588 167.137C118.135 166.818 117.69 166.474 117.28 166.045C115.957 164.682 114.299 163.857 112.564 163.549L112.56 163.561ZM90.0774 162.119C89.205 158.692 86.4221 156.272 83.1618 155.684C84.8269 156.838 86.1105 158.578 86.6507 160.704C87.5525 164.275 90.3889 166.546 93.557 167.123C91.9185 165.996 90.6293 164.303 90.0808 162.106L90.0774 162.119ZM86.6501 63.1592C85.4438 67.9151 80.5467 70.7424 75.8249 69.4091C69.2676 67.5568 63.214 73.6078 65.0659 80.1636C66.3951 84.8839 63.5721 89.7785 58.8154 90.9891C52.2116 92.6646 49.9955 100.935 54.8768 105.688C58.3909 109.115 58.3964 114.761 54.8771 118.189C49.9954 122.94 52.2045 131.212 58.8174 132.882C59.0842 132.953 59.3476 133.038 59.6029 133.126C55.1452 130.223 54.1457 123.637 58.2991 119.596C61.8104 116.173 61.8129 110.522 58.2988 107.096C53.4176 102.343 55.6337 94.0718 62.2375 92.3962C66.9942 91.1857 69.8218 86.2991 68.4879 81.5707C66.6361 75.015 72.6851 68.9559 79.2469 70.8163C83.9688 72.1496 88.8659 69.3222 90.0721 64.5663C91.2648 59.8613 95.8048 57.4012 100.036 58.1264C95.2047 54.7621 88.1747 57.1133 86.6454 63.1511L86.6501 63.1592Z" fill="#E07E2A"/>
<path d="M27.5471 124.537L58.4551 166.446C73.5716 163.797 99.8643 153.944 123.851 140.095C147.837 126.247 169.524 108.399 179.369 96.6364L158.529 48.915C140.171 74.6135 58.9656 121.497 27.5391 124.542L27.5471 124.537Z" fill="#C7212D"/>
<path d="M69.4357 142.854C67.7523 143.803 65.8547 144.861 64.5657 145.764C64.3598 147.133 64.19 148.427 64.0542 149.55C63.9563 150.248 63.7421 150.357 63.1295 150.323C62.583 150.297 62.0064 150.187 61.4537 149.879C60.9011 149.571 60.7609 149.178 60.8167 148.273C61.1937 143.493 62.4206 135.342 63.4703 130.763C63.6683 129.902 64.0425 129.358 65.0334 129.035C66.1924 128.652 67.846 128.504 68.8731 128.548C69.6458 128.587 69.8802 128.978 70.0185 129.718C70.7763 133.43 72.5461 140.414 74.035 145.729C74.2374 146.384 74.1294 146.612 73.5128 146.832C72.8963 147.053 72.1276 147.201 71.6851 147.201C71.0545 147.205 70.7561 146.901 70.4556 146.061C70.135 145.164 69.8104 144.079 69.4357 142.854ZM65.271 140.929C66.3039 140.37 67.3647 139.801 68.3996 139.336C67.7764 137.062 67.1791 134.684 66.7201 132.604C66.2883 134.845 65.7606 137.878 65.271 140.929Z" fill="white"/>
<path d="M89.2083 139.715C89.2014 140.595 88.8549 140.843 87.781 140.985C85.7815 141.239 85.117 141.203 84.559 139.92C84.1078 138.883 82.8005 134.908 82.037 132.482C81.7707 135.973 81.4763 141.489 81.3604 143.162C81.3143 144.026 81.0259 144.184 80.0849 144.333C79.6008 144.414 78.8781 144.469 78.3073 144.425C77.7365 144.381 77.4695 144.141 77.2558 143.649C76.116 141.029 73.9108 132.901 72.7325 127.507C72.6042 126.913 72.6884 126.585 73.0705 126.418C73.589 126.193 74.835 126.073 75.547 126.217C76.1143 126.328 76.3897 126.662 76.5975 127.513C76.9574 129.012 78.1606 134.687 78.8982 138.099C79.0552 133.909 79.4028 127.396 79.5864 125.953C79.6919 125.226 79.9019 125.037 80.7218 124.907C81.1787 124.839 81.7922 124.831 82.2538 124.923C82.8603 125.048 83.0965 125.367 83.2995 126.058C83.5382 126.831 85.0392 131.922 86.0153 135.36C85.828 130.378 85.995 123.003 86.1845 121.2C86.2663 120.418 86.4917 120.19 87.3046 120.194C87.8908 120.199 88.6693 120.347 89.1748 120.614C89.7706 120.939 89.9024 121.465 89.8563 122.329C89.5985 126.661 89.2193 135.264 89.2083 139.715Z" fill="white"/>
<path d="M91.9053 121.872C91.3587 121.514 90.7316 120.863 90.3846 120.438C90.0108 119.96 90.0902 119.786 90.4621 119.466C92.0293 118.012 95.232 115.901 97.638 114.591C98.1829 114.284 98.6623 114.376 99.0493 114.814C99.5163 115.279 99.7966 115.638 100.117 116.143C100.438 116.714 100.385 117.007 99.8273 117.354C98.6711 118.102 97.2492 119.051 95.9338 120.012C96.0832 121.303 96.2331 122.793 96.4098 124.337C97.021 123.896 97.659 123.509 98.3635 123.121C98.935 122.8 99.321 122.773 99.7612 123.184C100.215 123.622 100.588 124.034 100.909 124.539C101.283 125.084 101.204 125.324 100.686 125.751C99.4633 126.699 98.0949 127.753 96.9393 128.768C97.0614 129.739 97.1835 130.71 97.332 131.602C98.3151 130.841 99.2054 130.226 100.309 129.572C100.867 129.224 101.279 129.183 101.719 129.595C102.213 130.046 102.587 130.458 102.907 130.963C103.281 131.508 103.242 131.761 102.724 132.188C101.382 133.296 99.8677 134.524 98.6326 135.645C97.9419 136.259 97.4896 136.353 96.8104 136.195C96.3177 136.076 95.7982 135.904 95.1719 135.587C94.6788 135.335 94.1985 134.843 93.9836 134.019C93.3252 131.385 92.5006 125.97 91.9053 121.872Z" fill="white"/>
<path d="M103.309 127.78C103.883 126.916 105.06 126.397 105.866 126.561C108.153 127.06 109.881 126.677 110.213 125.743C110.62 124.699 107.004 124.566 104.742 123.747C103.158 123.164 101.734 121.708 101.536 119.332C101.323 117.237 101.85 114.389 102.86 112.532C103.256 111.835 104.027 110.895 105.336 110.677C106.342 110.526 107.611 110.603 108.424 110.901C109.6 111.301 110.015 112.229 110.327 112.975C110.811 114.272 111.29 116.662 111.337 118.032C111.352 118.671 111.15 118.92 110.566 118.973C108.922 119.139 107.875 118.665 107.53 117.495C107.217 116.443 106.897 114.032 106.498 114.05C105.778 114.042 104.334 119.342 106.795 120.458C109.458 121.633 113.551 121.092 113.646 124.139C113.717 126.347 112.996 128.417 110.864 129.604C109.147 130.56 107.034 130.68 104.42 129.41C103.073 128.764 102.96 128.316 103.309 127.78Z" fill="white"/>
<path d="M118.708 103.919C119.815 104.176 120.581 104.785 121.23 105.714C123.548 109.038 125.566 115.426 124.46 120.008C124.083 121.541 123.205 122.439 121.873 123.059C121.002 123.462 119.853 123.757 118.913 123.712C118.187 123.673 117.207 123.338 116.491 122.696C113.154 119.762 111.352 111.977 113.052 106.884C113.406 105.821 114.354 104.81 115.241 104.432C116.396 103.923 117.765 103.7 118.708 103.919ZM117.197 107.176C116.256 107.412 116.211 111.333 116.807 114.258C117.387 117.158 118.907 120.664 120.078 120.461C121.223 120.273 121.293 117.178 120.429 113.543C119.764 110.731 118.162 106.925 117.197 107.176Z" fill="white"/>
<path d="M133.076 111.443C131.946 110.056 129.188 106.064 127.814 103.974C128.783 106.935 130.689 112.553 131.941 115.861C132.201 116.588 132.045 116.882 131.348 117.084C130.988 117.193 130.462 117.275 130.009 117.304C129.144 117.371 128.754 117.027 128.266 115.877C126.673 112.19 124.046 104.166 123.016 100.554C122.839 99.8404 122.944 99.474 123.405 99.1468C124.06 98.6819 125.501 98.2438 126.29 98.1218C127.318 97.9764 127.695 98.1472 128.246 98.924L129.151 100.252L131.434 103.522L132.502 105.027C131.97 101.756 131.506 96.5751 131.413 94.2326C131.381 93.416 131.683 93.0191 132.383 92.6685C133.011 92.3695 134.344 91.9345 135.569 91.7586C136.268 91.664 136.607 91.935 136.922 92.8425C138.317 96.8154 140.94 104.989 142.275 108.567C142.429 109.042 142.372 109.374 142.105 109.563C141.765 109.804 140.945 109.985 140.426 110.025C139.561 110.091 139.15 109.872 138.583 108.559C137.635 106.348 136.079 101.942 134.939 98.2263C135.281 101.486 135.907 106.844 136.466 110.717C136.557 111.309 136.515 111.558 136.248 111.748C135.956 111.954 135.392 112.136 134.776 112.245C134.135 112.37 133.693 112.21 133.076 111.443Z" fill="white"/>
<path d="M139.409 92.06C138.801 91.8224 138.053 91.3152 137.625 90.9708C137.161 90.58 137.203 90.3941 137.501 90.0039C138.734 88.2574 141.432 85.5314 143.516 83.753C143.986 83.3397 144.474 83.3309 144.943 83.6799C145.496 84.0382 145.844 84.3314 146.262 84.7593C146.694 85.2524 146.703 85.5499 146.228 86.005C145.251 86.9756 144.056 88.1969 142.967 89.4091C143.38 90.6412 143.834 92.0685 144.325 93.5423C144.833 92.985 145.377 92.4742 145.986 91.9495C146.479 91.5177 146.851 91.4111 147.367 91.723C147.901 92.0581 148.352 92.3839 148.77 92.8118C149.248 93.2677 149.22 93.5187 148.801 94.0436C147.801 95.2233 146.679 96.5377 145.758 97.7686C146.078 98.6938 146.398 99.6191 146.727 100.461C147.532 99.5131 148.276 98.7283 149.221 97.8599C149.695 97.4048 150.09 97.2797 150.606 97.5916C151.182 97.9314 151.633 98.2571 152.051 98.6851C152.529 99.141 152.543 99.3967 152.124 99.9215C151.04 101.282 149.811 102.797 148.834 104.148C148.285 104.892 147.862 105.077 147.165 105.063C146.658 105.048 146.114 104.987 145.436 104.805C144.901 104.661 144.33 104.279 143.95 103.517C142.762 101.075 140.837 95.947 139.409 92.06Z" fill="white"/>
<path d="M150.057 78.1709C150.796 78.1584 151.115 78.4334 151.363 79.1254C152.791 83.2103 154.534 87.9286 156.022 91.4481C156.295 92.0786 156.174 92.3023 155.627 92.5812C155.058 92.8796 154.392 93.0659 153.837 93.1543C153.199 93.237 152.855 93.0236 152.467 92.2164C150.875 88.9851 148.543 83.3193 147.248 80.0662C146.961 79.3293 147.11 79.002 147.805 78.7123C148.413 78.4587 149.318 78.1834 150.057 78.1709ZM157.075 98.2284C156.029 98.7051 154.759 98.1537 154.267 96.7277C153.863 95.5398 154.185 94.2329 155.485 93.7316C156.721 93.247 157.663 93.9656 158.117 95.0304C158.716 96.4427 158.184 97.7351 157.075 98.2284Z" fill="white"/>
<path d="M44.3729 147.428C44.1796 147.54 43.9267 147.492 43.799 147.308L41.7575 144.535C41.6124 144.34 41.6538 144.058 41.8493 143.913C42.0494 143.776 42.3264 143.809 42.4715 144.005L44.513 146.778C44.6581 146.974 44.6167 147.255 44.4212 147.4C44.4051 147.41 44.389 147.419 44.3809 147.424L44.3729 147.428Z" fill="#FF6C76"/>
<path d="M39.8372 141.284C39.6439 141.395 39.3911 141.348 39.2634 141.164L29.5433 127.993L30.2574 127.462L39.9774 140.633C40.1225 140.829 40.081 141.111 39.8856 141.256C39.8694 141.265 39.8533 141.274 39.8453 141.279L39.8372 141.284Z" fill="#FF6C76"/>
<path d="M169.944 74.9215C169.944 74.9215 169.912 74.94 169.904 74.9447C169.68 75.0414 169.416 74.9365 169.319 74.7131L163.445 61.2653C163.348 61.0419 163.453 60.7773 163.677 60.6805C163.9 60.5838 164.165 60.6888 164.261 60.9121L170.135 74.3599C170.223 74.5672 170.145 74.8052 169.952 74.9168L169.944 74.9215Z" fill="#FF6C76"/>
<path d="M162.291 57.4013C162.291 57.4013 162.259 57.4199 162.251 57.4245C162.027 57.5213 161.763 57.4163 161.666 57.1929L159.714 52.7142C159.617 52.4908 159.73 52.2215 159.945 52.1294C160.168 52.0327 160.433 52.1376 160.53 52.361L162.482 56.8398C162.57 57.047 162.492 57.285 162.299 57.3966L162.291 57.4013Z" fill="#FF6C76"/>
<path d="M108.125 96.1463C95.697 103.322 85.0376 108.724 84.8799 108.804C84.6658 108.917 84.3978 108.825 84.285 108.611C84.1721 108.397 84.2551 108.113 84.4784 108.016C84.7213 107.897 109.206 95.4897 127.268 83.2469C127.468 83.1099 127.746 83.1641 127.883 83.3642C128.02 83.5643 127.966 83.8425 127.766 83.9796C121.56 88.1855 114.601 92.4075 108.125 96.1463Z" fill="#781C42"/>
<path d="M135.704 78.2697C135.519 78.3767 135.271 78.3374 135.135 78.158C134.982 77.9672 135.024 77.6856 135.214 77.5324C137.647 75.6447 139.728 73.8739 141.394 72.2572C141.571 72.0799 141.846 72.0925 142.024 72.2694C142.201 72.4463 142.188 72.722 142.011 72.8993C140.326 74.538 138.226 76.3308 135.761 78.2372C135.745 78.2465 135.729 78.2557 135.704 78.2697Z" fill="#781C42"/>
<path d="M97.0819 148.69C97.0819 148.69 97.0577 148.704 97.0496 148.708C81.1546 156.296 70.0132 159.431 69.9026 159.463C69.6687 159.523 69.419 159.388 69.3591 159.154C69.2946 158.912 69.4262 158.675 69.6681 158.61C69.7787 158.579 80.8463 155.464 96.6689 147.919C96.8876 147.814 97.1557 147.906 97.2605 148.125C97.3606 148.336 97.2798 148.586 97.0865 148.698L97.0819 148.69Z" fill="#781C42"/>
</svg>
