<svg width="24" height="25" viewBox="0 0 24 25" fill="none" xmlns="http://www.w3.org/2000/svg">
<path d="M7.3375 3.5C4.9795 3.5 3.0625 5.417 3.0625 7.775C3.0625 10.088 4.8715 11.96 7.2295 12.041C7.3015 12.032 7.3735 12.032 7.4275 12.041C7.4455 12.041 7.4545 12.041 7.4725 12.041C7.4815 12.041 7.4815 12.041 7.4905 12.041C9.7945 11.96 11.6035 10.088 11.6125 7.775C11.6125 5.417 9.6955 3.5 7.3375 3.5Z" fill="#FEA789"/>
<path d="M11.908 14.4352C9.397 12.7612 5.302 12.7612 2.773 14.4352C1.63 15.2002 1 16.2352 1 17.3422C1 18.4492 1.63 19.4752 2.764 20.2312C4.024 21.0772 5.68 21.5002 7.336 21.5002C8.992 21.5002 10.648 21.0772 11.908 20.2312C13.042 19.4662 13.672 18.4402 13.672 17.3242C13.663 16.2172 13.042 15.1912 11.908 14.4352Z" fill="#FEA789"/>
<path d="M17.2256 8.3057C17.3696 10.0517 16.1276 11.5817 14.4086 11.7887C14.3996 11.7887 14.3996 11.7887 14.3906 11.7887H14.3636C14.3096 11.7887 14.2556 11.7887 14.2106 11.8067C13.3376 11.8517 12.5366 11.5727 11.9336 11.0597C12.8606 10.2317 13.3916 8.9897 13.2836 7.6397C13.2206 6.9107 12.9686 6.2447 12.5906 5.6777C12.9326 5.5067 13.3286 5.3987 13.7336 5.3627C15.4976 5.2097 17.0726 6.5237 17.2256 8.3057Z" fill="#FEA789"/>
<path d="M19.0281 16.6311C18.9561 17.5041 18.3981 18.2601 17.4621 18.7731C16.5621 19.2681 15.4281 19.5021 14.3031 19.4751C14.9511 18.8901 15.3291 18.1611 15.4011 17.3871C15.4911 16.2711 14.9601 15.2001 13.8981 14.3451C13.2951 13.8681 12.5931 13.4901 11.8281 13.2111C13.8171 12.6351 16.3191 13.0221 17.8581 14.2641C18.6861 14.9301 19.1091 15.7671 19.0281 16.6311Z" fill="#FEA789"/>
<path d="M9.15859 11.3695C9.05859 11.3595 8.93859 11.3595 8.82859 11.3695C6.44859 11.2895 4.55859 9.33951 4.55859 6.93951C4.55859 4.48951 6.53859 2.49951 8.99859 2.49951C11.4486 2.49951 13.4386 4.48951 13.4386 6.93951C13.4286 9.33951 11.5386 11.2895 9.15859 11.3695Z" stroke="black" stroke-opacity="0.8" stroke-linecap="round" stroke-linejoin="round"/>
<path d="M16.4073 4.50049C18.3473 4.50049 19.9073 6.07049 19.9073 8.00049C19.9073 9.89049 18.4073 11.4305 16.5373 11.5005C16.4573 11.4905 16.3673 11.4905 16.2773 11.5005" stroke="black" stroke-opacity="0.8" stroke-linecap="round" stroke-linejoin="round"/>
<path d="M4.15875 15.0605C1.73875 16.6805 1.73875 19.3205 4.15875 20.9305C6.90875 22.7705 11.4188 22.7705 14.1688 20.9305C16.5887 19.3105 16.5887 16.6705 14.1688 15.0605C11.4288 13.2305 6.91875 13.2305 4.15875 15.0605Z" stroke="black" stroke-opacity="0.8" stroke-linecap="round" stroke-linejoin="round"/>
<path d="M18.3398 20.5C19.0598 20.35 19.7398 20.06 20.2998 19.63C21.8598 18.46 21.8598 16.53 20.2998 15.36C19.7498 14.94 19.0798 14.66 18.3698 14.5" stroke="black" stroke-opacity="0.8" stroke-linecap="round" stroke-linejoin="round"/>
</svg>
