<svg width="24" height="24" viewBox="0 0 24 24" fill="none" xmlns="http://www.w3.org/2000/svg">
<path d="M15 22H9C4 22 2 20 2 15V9C2 4 4 2 9 2H15C20 2 22 4 22 9V15C22 20 20 22 15 22Z" stroke="#1AC387" stroke-opacity="0.3" stroke-width="1.5" stroke-linecap="round" stroke-linejoin="round"/>
<path d="M12.8243 17.6406C12.7162 17.6406 12.6306 17.6168 12.5676 17.5692C12.5045 17.5216 12.4459 17.4644 12.3919 17.3978L9.2973 13.6549C9.22523 13.5787 9.17568 13.5121 9.14865 13.4549C9.13063 13.3882 9.12162 13.2882 9.12162 13.1549V12.8406C9.12162 12.7454 9.14865 12.6692 9.2027 12.6121C9.26577 12.5454 9.34234 12.5121 9.43243 12.5121H10.1622C10.7928 12.5121 11.2748 12.4263 11.6081 12.2549C11.9414 12.0835 12.1667 11.8549 12.2838 11.5692C12.4099 11.2835 12.473 10.9549 12.473 10.5835C12.473 10.2311 12.4099 9.91205 12.2838 9.62634C12.1667 9.3311 11.9505 9.09777 11.6351 8.92634C11.3198 8.75491 10.8739 8.6692 10.2973 8.6692H9.31081C9.22072 8.6692 9.14414 8.64063 9.08108 8.58348C9.02703 8.51682 9 8.43586 9 8.34063V7.9692C9 7.87396 9.02703 7.79777 9.08108 7.74063C9.14414 7.67396 9.22072 7.64062 9.31081 7.64062H14.6892C14.7793 7.64062 14.8514 7.67396 14.9054 7.74063C14.9685 7.79777 15 7.87396 15 7.9692V8.34063C15 8.43586 14.9685 8.51682 14.9054 8.58348C14.8514 8.64063 14.7793 8.6692 14.6892 8.6692H12.6351L12.2973 8.28348C12.8829 8.43586 13.2838 8.72634 13.5 9.15491C13.7162 9.58348 13.8243 10.0787 13.8243 10.6406C13.8243 11.1644 13.7162 11.6454 13.5 12.0835C13.2928 12.5216 12.9595 12.874 12.5 13.1406C12.0495 13.3978 11.4685 13.5359 10.7568 13.5549L10.3514 13.5692L10.3649 12.9978L13.8243 17.1978C13.8964 17.274 13.9324 17.3454 13.9324 17.4121C13.9324 17.4882 13.9054 17.5454 13.8514 17.5835C13.7973 17.6216 13.7297 17.6406 13.6486 17.6406H12.8243ZM9.31081 10.9549C9.21171 10.9549 9.13514 10.9263 9.08108 10.8692C9.02703 10.8121 9 10.7311 9 10.6263V10.2692C9 10.1644 9.02703 10.0835 9.08108 10.0263C9.14414 9.9692 9.22072 9.94062 9.31081 9.94062H14.6892C14.7793 9.94062 14.8514 9.9692 14.9054 10.0263C14.9685 10.0835 15 10.1644 15 10.2692V10.6263C15 10.7311 14.9685 10.8121 14.9054 10.8692C14.8514 10.9263 14.7793 10.9549 14.6892 10.9549H9.31081Z" fill="#1AC387"/>
</svg>
