<svg width="24" height="25" viewBox="0 0 24 25" fill="none" xmlns="http://www.w3.org/2000/svg">
<path d="M7.05077 16.7975C7.13954 16.4021 6.97814 15.8372 6.69569 15.5547L4.73468 13.5937C4.12136 12.9804 3.87926 12.3267 4.0568 11.7618C4.24241 11.1969 4.81538 10.8096 5.6708 10.6643L8.18865 10.2447C8.5518 10.1801 8.99565 9.85732 9.16512 9.52644L10.5532 6.74229C10.9567 5.94336 11.5054 5.49951 12.1026 5.49951C12.6998 5.49951 13.2485 5.94336 13.652 6.74229L15.0401 9.52644C15.145 9.73627 15.3629 9.93802 15.5969 10.0752L6.90551 18.7666C6.79253 18.8796 6.59885 18.7747 6.63113 18.6133L7.05077 16.7975Z" fill="#FFE27F"/>
<path d="M17.5117 15.5542C17.2211 15.8447 17.0597 16.4016 17.1566 16.797L17.7134 19.2261C17.9474 20.2348 17.8022 20.9934 17.3018 21.3565C17.1001 21.5018 16.858 21.5744 16.5755 21.5744C16.164 21.5744 15.6798 21.4211 15.1471 21.1064L12.7826 19.7022C12.4114 19.4843 11.7981 19.4843 11.4269 19.7022L9.06236 21.1064C8.16658 21.6309 7.39993 21.7197 6.90766 21.3565C6.72205 21.2194 6.58486 21.0337 6.49609 20.7916L16.3092 10.9785C16.6804 10.6073 17.205 10.4378 17.7134 10.5266L18.5285 10.6638C19.3839 10.809 19.9569 11.1964 20.1425 11.7613C20.32 12.3262 20.0779 12.9799 19.4646 13.5932L17.5117 15.5542Z" fill="#FFE27F"/>
<path d="M5.28284 19.1496L5.85284 16.6796C5.98284 16.0996 5.75284 15.2896 5.33284 14.8696L2.85284 12.3896C1.39284 10.9296 1.86284 9.44965 3.90284 9.10965L7.09284 8.57965C7.62284 8.48965 8.26284 8.01965 8.50284 7.52965L10.2628 4.00965C11.2128 2.09965 12.7728 2.09965 13.7328 4.00965L15.4928 7.52965C15.6028 7.75965 15.8128 7.97965 16.0428 8.16965" stroke="black" stroke-opacity="0.8" stroke-linecap="round" stroke-linejoin="round"/>
<path d="M20.1034 9.11035C22.1434 9.45035 22.6234 10.9304 21.1534 12.3904L18.6734 14.8704C18.2534 15.2904 18.0234 16.1004 18.1534 16.6804L18.8634 19.7504C19.4234 22.1804 18.1334 23.1204 15.9834 21.8504L12.9934 20.0804C12.4534 19.7604 11.5634 19.7604 11.0134 20.0804L8.02344 21.8504" stroke="black" stroke-opacity="0.8" stroke-linecap="round" stroke-linejoin="round"/>
</svg>
