<svg width="216" height="245" viewBox="0 0 216 245" fill="none" xmlns="http://www.w3.org/2000/svg">
<path d="M27.3795 240.315L24.8572 234.128C19.8825 231.299 16.9979 225.697 17.6946 219.914L18.0151 217.322L2.42188 179.085L5.04166 177.148C5.29249 176.966 10.9083 172.883 23.9514 168.09L25.2196 157.639L2.42188 101.731L5.04166 99.7944C5.40397 99.5297 13.6674 93.5377 33.678 87.5038L35.2388 74.5303C36.0749 67.5768 41.7743 62.2536 48.7696 61.8913L73.769 60.5954L74.4936 56.387C74.5912 55.8435 74.41 55.3001 74.0198 54.9099L62.4677 43.6504C59.7086 40.961 58.7471 37.0313 59.9316 33.3664C61.116 29.7154 64.2235 27.0957 68.0278 26.5383L83.9834 24.2251C84.5268 24.1414 85.0006 23.807 85.2375 23.3193L92.3722 8.85477C94.0723 5.41283 97.5142 3.26685 101.36 3.26685C105.206 3.26685 108.648 5.41283 110.348 8.85477L117.483 23.3193C117.72 23.807 118.194 24.1554 118.737 24.2251L134.693 26.5383C138.497 27.0957 141.605 29.7015 142.789 33.3664C143.973 37.0174 143.012 40.961 140.253 43.6504L128.701 54.9099C128.31 55.3001 128.129 55.8435 128.227 56.387L128.464 57.7526L180.483 55.0632C180.734 55.0632 180.985 55.0492 181.236 55.0492C185.695 55.0492 189.847 57.1534 192.523 60.5536C202.333 55.9411 206.695 51.9557 206.751 51.9139L215.042 44.2496L213.76 55.4534L205.678 125.351L204.66 126.382C204.409 126.633 202.904 128.082 199.435 130.103C205.023 129.197 208.478 128.291 208.52 128.278L214.457 126.689L205.678 202.69L204.66 203.722C204.186 204.195 199.992 208.181 188.51 212.487L188.022 222.353C187.646 230.017 181.333 236.023 173.655 236.023H154.675L155.344 243.715H47.3901L48.0589 236.023H47.6828C38.0537 239.437 33.5108 242.252 33.4551 242.28L29.2467 244.913L27.3655 240.329L27.3795 240.315Z" fill="#A8A5A1"/>
<path d="M24.9576 237.611L22.4354 231.424C17.4606 228.595 14.576 222.993 15.2728 217.21L15.5932 214.618L0 176.381L2.61978 174.444C2.87061 174.263 8.48642 170.18 21.5296 165.386L22.7976 154.935L0 99.0278L2.61978 97.0909C2.98209 96.8261 11.2455 90.834 31.2562 84.8002L32.8169 71.8267C33.653 64.8732 39.3524 59.55 46.3478 59.1877L71.3471 57.8918L72.0718 53.6834C72.1693 53.1399 71.9881 52.5965 71.5979 52.2063L60.0459 40.9468C57.2867 38.2574 56.3252 34.3277 57.5097 30.6628C58.6942 27.0118 61.8017 24.3921 65.6059 23.8347L81.5615 21.5215C82.1049 21.4378 82.5787 21.1034 82.8156 20.6157L89.9503 6.15116C91.6504 2.70922 95.0923 0.563232 98.9384 0.563232C102.784 0.563232 106.226 2.70922 107.926 6.15116L115.061 20.6157C115.298 21.1034 115.772 21.4518 116.315 21.5215L132.271 23.8347C136.075 24.3921 139.183 26.9979 140.367 30.6628C141.552 34.3138 140.59 38.2574 137.831 40.9468L126.279 52.2063C125.889 52.5965 125.708 53.1399 125.805 53.6834L126.042 55.049L178.061 52.3596C178.312 52.3596 178.563 52.3456 178.814 52.3456C183.273 52.3456 187.425 54.4498 190.101 57.8499C199.911 53.2375 204.273 49.2521 204.329 49.2103L212.62 41.546L211.338 52.7497L203.256 122.648L202.238 123.679C201.988 123.93 200.483 125.379 197.013 127.399C202.601 126.508 206.057 125.588 206.098 125.574L212.035 123.985L203.256 199.987L202.238 201.018C201.765 201.492 197.57 205.477 186.088 209.783L185.6 219.649C185.224 227.313 178.911 233.319 171.233 233.319H152.254L152.922 241.011H44.9682L45.6371 233.319H45.2608C35.6317 236.733 31.089 239.548 31.0332 239.576L26.8248 242.21L24.9436 237.625L24.9576 237.611Z" fill="white"/>
<path d="M19.4015 217.712L36.9456 72.3565C37.5448 67.4375 41.5859 63.6471 46.5468 63.3963L178.274 56.5682C184.308 56.2616 189.283 61.2225 188.99 67.2563L181.41 219.44C181.145 224.875 176.658 229.125 171.223 229.125H29.5322C23.4148 229.125 18.6768 223.774 19.4015 217.698V217.712Z" fill="#3AB4CF"/>
<path d="M28.8281 158.697C28.8281 158.697 112.981 176.004 142.37 175.196C171.773 174.388 207.196 129.615 207.196 129.615C207.196 129.615 173.668 138.687 143.179 128.486C112.703 118.286 33.134 145.445 28.8281 158.697Z" fill="#781C42"/>
<path d="M101.662 68.9836L115.946 76.4946C120.238 78.752 125.254 75.1011 124.432 70.3353L121.701 54.4355C121.38 52.5403 122.007 50.6034 123.387 49.2656L134.939 38.0062C138.409 34.62 136.5 28.7255 131.692 28.0287L115.737 25.7155C113.828 25.4368 112.183 24.2384 111.333 22.5105L104.199 8.04594C102.053 3.69823 95.8514 3.69823 93.7054 8.04594L86.5707 22.5105C85.7207 24.2384 84.0764 25.4368 82.1673 25.7155L66.2118 28.0287C61.4181 28.7255 59.4951 34.62 62.9649 38.0062L74.5169 49.2656C75.8965 50.6034 76.5236 52.5403 76.2031 54.4355L73.4718 70.3353C72.6497 75.115 77.6663 78.752 81.9583 76.4946L96.2277 68.9836C97.9277 68.0918 99.9623 68.0918 101.676 68.9836H101.662Z" fill="#FFC960"/>
<path d="M98.9366 191.695V63.8279L69.8125 77.1637L84.3746 193.145L98.9366 191.695Z" fill="#FFC960"/>
<path d="M98.9297 191.695V63.8279L128.054 77.1637L113.492 193.145L98.9297 191.695Z" fill="#E0982A"/>
<path d="M76.1708 74.9617C75.9061 74.9617 75.6552 74.8084 75.5437 74.5576C75.3904 74.2092 75.5437 73.7912 75.8921 73.6379L82.8177 70.4607C83.1661 70.3074 83.5842 70.4607 83.7375 70.8091C83.8908 71.1575 83.7375 71.5755 83.3891 71.7288L76.4634 74.906C76.3659 74.9478 76.2684 74.9757 76.1708 74.9757V74.9617Z" fill="#FFE2AB"/>
<path d="M117.116 72.8437C117.018 72.8437 116.921 72.8297 116.823 72.774L98.9448 64.5942L89.901 68.7329C89.5526 68.8861 89.1345 68.7329 88.9812 68.3845C88.8279 68.0361 88.9812 67.6181 89.3296 67.4648L98.6661 63.1867C98.8472 63.1031 99.0562 63.1031 99.2513 63.1867L117.423 71.5059C117.771 71.6592 117.924 72.0773 117.771 72.4256C117.659 72.6765 117.395 72.8297 117.13 72.8297L117.116 72.8437Z" fill="#FFE2AB"/>
<path d="M98.054 28.9208C98.054 31.2479 96.1589 33.1431 93.8317 33.1431C91.5046 33.1431 89.6094 31.2479 89.6094 28.9208C89.6094 26.5936 91.5046 24.6985 93.8317 24.6985C96.1589 24.6985 98.054 26.5936 98.054 28.9208Z" fill="white"/>
<path d="M90.8482 39.804C90.8482 40.8909 89.9564 41.7827 88.8695 41.7827C87.7825 41.7827 86.8906 40.8909 86.8906 39.804C86.8906 38.717 87.7825 37.8252 88.8695 37.8252C89.9564 37.8252 90.8482 38.717 90.8482 39.804Z" fill="white"/>
<path d="M144.233 189.368H98.9447H53.656L49.5312 236.83H98.9447H148.358L144.233 189.368Z" fill="#B3583A"/>
<path d="M111.269 189.368L107.883 198.217L96.4704 227.996L93.0703 236.83H104.288L107.674 227.996L119.087 198.217L122.487 189.368H111.269Z" fill="#78281C"/>
<path d="M53.656 189.368L49.5312 236.83H79.6169L97.816 189.368H53.656Z" fill="#78281C"/>
<path d="M5.09375 177.816C5.09375 177.816 33.8695 156.607 119.444 153.889C183.657 151.855 207.193 129.615 207.193 129.615L199.278 198.063C199.278 198.063 183.629 213.88 119.444 216.569C55.2597 219.272 28.825 236.022 28.825 236.022L5.09375 177.802V177.816Z" fill="#C7212D"/>
<path d="M84.1762 200.404C83.8522 201.681 83.2595 201.919 81.6459 201.743C78.6459 201.398 77.6916 201.109 77.3374 199.043C77.051 197.373 76.5673 191.122 76.3222 187.319C74.6887 192.304 72.2919 200.225 71.526 202.619C71.1505 203.859 70.6746 203.986 69.2519 203.868C68.5185 203.813 67.4474 203.635 66.6324 203.367C65.8174 203.1 65.5147 202.654 65.3791 201.863C64.6556 197.644 64.3474 185.029 64.558 176.758C64.5831 175.849 64.8229 175.401 65.4382 175.295C66.2733 175.152 68.1293 175.422 69.1138 175.887C69.8999 176.25 70.1812 176.835 70.18 178.147C70.1688 180.456 69.8942 189.145 69.75 194.372C71.4739 188.331 74.3039 178.978 75.0861 176.944C75.4992 175.923 75.8722 175.723 77.1116 175.827C77.801 175.89 78.6964 176.099 79.3355 176.396C80.1731 176.795 80.403 177.344 80.452 178.422C80.5236 179.631 80.8906 187.576 81.0842 192.927C82.5895 185.611 85.4647 174.938 86.3838 172.382C86.7818 171.274 87.1912 171.022 88.3729 171.318C89.2243 171.533 90.3042 172.027 90.9447 172.596C91.6956 173.281 91.6994 174.095 91.324 175.336C89.403 181.547 85.7807 193.931 84.1762 200.404Z" fill="white"/>
<path d="M105.541 171.7C106.858 172.778 107.483 174.105 107.739 175.783C108.65 181.787 107.127 191.707 102.603 197.131C101.08 198.941 99.3051 199.565 97.1044 199.515C95.6668 199.479 93.9276 199.114 92.6945 198.43C91.7453 197.897 90.6499 196.796 90.1137 195.461C87.5746 189.305 90.314 177.65 95.9743 171.934C97.1552 170.741 99.0991 170.01 100.541 170.091C102.431 170.171 104.419 170.78 105.541 171.7ZM101.35 175.074C99.9307 174.767 97.2701 180.006 96.1319 184.331C94.9893 188.612 94.7067 194.332 96.4147 194.834C98.0783 195.341 100.224 191.229 101.473 185.772C102.443 181.553 102.814 175.376 101.35 175.074Z" fill="white"/>
<path d="M113.362 188.982C112.565 191.834 111.813 194.684 111.184 197.305C110.963 198.253 110.66 198.447 109.713 198.271C108.765 198.05 107.903 197.78 107.258 197.365C106.427 196.826 106.307 196.207 106.468 194.949C107.112 190.809 109.087 182.898 110.819 176.384C110.43 175.733 109.942 174.909 109.64 174.21C109.184 173.116 109.202 172.579 110.111 171.999C114.355 169.333 122.624 166.826 125.502 169.943C126.681 171.224 127.709 173.049 128.138 175.394C128.573 177.872 127.516 179.978 125.863 181.757C124.167 183.582 121.714 185.444 118.89 187.013C120.434 189.347 122.955 192.482 124.746 194.402C125.499 195.169 125.298 195.625 124.701 196.19C123.975 196.851 123.578 196.96 122.832 197.22C121.999 197.529 120.932 197.627 119.673 196.528C117.905 195.098 115.199 191.838 113.362 188.982ZM117.473 175.519C116.73 177.654 115.965 180.237 115.12 183.002C120.276 180.738 123.505 176.516 123.078 175.108C122.805 174.095 120.255 173.998 117.473 175.519Z" fill="white"/>
<path d="M139.548 185.03C141.049 187.899 143.092 191.348 144.271 193.081C144.784 193.843 144.649 194.347 143.891 194.905C143.385 195.261 142.564 195.601 141.957 195.832C140.958 196.187 139.844 196.238 138.836 194.938C137.978 193.803 135.888 190.851 134.395 188.07C133.767 191.168 133.164 194.039 132.73 196.27C132.548 197.27 132.252 197.475 131.296 197.289C130.34 197.103 129.191 196.754 128.386 196.242C127.581 195.73 127.398 195.163 127.553 193.852C128.183 188.695 130.867 174.679 132.391 168.997C132.699 167.896 133.262 167.669 134.221 167.899C135.226 168.126 136.668 168.763 137.521 169.316C138.471 169.95 138.635 170.294 138.323 171.35C137.741 173.414 137.053 176.338 136.303 179.581C139.572 175.449 143.8 169.982 145.629 167.318C146.227 166.461 146.715 166.419 147.443 167.072C148.122 167.685 148.784 168.613 149.135 169.567C149.426 170.348 149.366 171.203 148.755 172.42C147.109 175.65 142.917 181.024 139.548 185.03Z" fill="white"/>
<path d="M159.491 165.046C160.429 165.635 160.604 166.241 160.349 167.312C158.799 173.608 157.126 180.956 156.114 186.591C155.941 187.606 155.606 187.788 154.692 187.691C153.734 187.6 152.745 187.288 151.976 186.945C151.107 186.527 150.85 185.977 151.024 184.647C151.67 179.289 153.379 170.269 154.415 165.126C154.658 163.967 155.112 163.678 156.222 163.883C157.192 164.062 158.553 164.457 159.491 165.046ZM151.888 195.963C150.186 195.706 149.043 193.975 149.592 191.782C150.057 189.961 151.53 188.584 153.572 189.018C155.52 189.421 156.114 191.094 155.813 192.802C155.409 195.065 153.684 196.252 151.888 195.963Z" fill="white"/>
<path d="M84.3819 215.273C84.0475 215.273 83.7548 215.036 83.6991 214.702C83.6294 214.326 83.8802 213.963 84.2704 213.894C84.3261 213.894 89.9977 212.89 98.6513 211.762C99.0276 211.706 99.3899 211.984 99.4317 212.361C99.4874 212.737 99.2087 213.099 98.8325 213.141C90.2207 214.27 84.5631 215.259 84.5074 215.273C84.4656 215.273 84.4237 215.273 84.3819 215.273Z" fill="#FF6C76"/>
<path d="M110.552 211.734C110.204 211.734 109.898 211.469 109.856 211.107C109.814 210.73 110.093 210.382 110.469 210.34C119.192 209.42 127.525 208.793 135.231 208.473C161.011 207.414 172.995 202.467 173.107 202.411C173.455 202.258 173.873 202.425 174.026 202.787C174.18 203.136 174.012 203.554 173.664 203.707C173.176 203.916 161.373 208.807 135.301 209.88C127.623 210.201 119.318 210.828 110.636 211.734C110.608 211.734 110.58 211.734 110.566 211.734H110.552Z" fill="#FF6C76"/>
<path d="M48.3723 167.671C48.0518 167.671 47.773 167.462 47.6894 167.142C47.6058 166.765 47.8288 166.389 48.2051 166.305C48.4559 166.25 73.0511 160.341 94.3159 159.268C94.7339 159.254 95.0266 159.547 95.0405 159.923C95.0544 160.313 94.7618 160.634 94.3855 160.648C73.2601 161.707 48.7764 167.587 48.5255 167.643C48.4698 167.643 48.4141 167.657 48.3583 167.657L48.3723 167.671Z" fill="#FF6C76"/>
<path d="M5.09375 100.477C5.09375 100.477 33.8695 79.254 119.444 76.5506C183.657 74.5161 207.193 52.2759 207.193 52.2759L199.278 120.724C199.278 120.724 183.629 136.541 119.444 139.23C55.2597 141.934 28.825 158.683 28.825 158.683L5.09375 100.463V100.477Z" fill="#C7212D"/>
<path d="M85.0846 105.758C84.9442 106.592 84.684 106.948 83.7381 106.961C81.2158 106.994 80.0194 105.691 79.7468 103.658C79.55 102.109 79.5651 99.8951 78.8698 99.778C77.4793 99.544 75.0161 104.578 73.6861 109.93C72.5474 114.486 72.7264 119.965 74.3785 120.429C75.7457 120.802 77.3868 118.018 78.4029 114.7C76.1767 115.183 74.9472 114.247 74.2974 111.821C74.0854 111.042 74.4475 110.759 75.1689 110.466C76.6049 109.835 79.0473 109.003 80.3856 108.613C81.6357 108.237 82.331 108.354 83.0277 109.058C83.5137 109.568 83.9694 110.174 84.3163 110.662C84.9661 111.643 85.0253 112.311 84.7197 113.532C83.6788 117.847 81.9137 121.282 79.8333 123.277C78.5006 124.569 76.8815 125.183 75.1591 125.136C73.5758 125.112 72.1205 124.753 70.7561 124.109C69.7277 123.592 68.5657 122.51 67.9998 121.199C65.2904 115.124 68.0166 102.241 73.8239 96.369C75.0314 95.1423 76.6918 94.7927 77.953 94.7761C79.6616 94.7349 81.7749 95.2622 83.0485 96.1915C84.271 97.0837 84.7653 98.2251 85.0572 99.8043C85.3559 101.428 85.3118 104.323 85.0846 105.758Z" fill="white"/>
<path d="M93.1765 112.498C92.5176 115.385 91.9032 118.268 91.4002 120.916C91.225 121.874 90.9317 122.082 89.978 121.951C89.02 121.776 88.1464 121.547 87.4817 121.164C86.6265 120.665 86.477 120.053 86.5775 118.788C87.0218 114.623 88.6152 106.627 90.0324 100.036C89.6123 99.4052 89.0861 98.6053 88.7504 97.9213C88.2426 96.8508 88.235 96.3139 89.1149 95.6903C93.2258 92.8244 101.366 89.9234 104.389 92.8987C105.629 94.1217 106.743 95.8946 107.283 98.2164C107.837 100.671 106.882 102.826 105.316 104.681C103.71 106.585 101.35 108.563 98.6037 110.265C100.258 112.523 102.927 115.533 104.808 117.366C105.596 118.095 105.418 118.561 104.849 119.154C104.155 119.849 103.764 119.977 103.031 120.272C102.214 120.621 101.153 120.769 99.8422 119.733C98.0083 118.388 95.1491 115.263 93.1765 112.498ZM96.6374 98.8533C95.998 101.022 95.3575 103.638 94.6456 106.441C99.6874 103.932 102.71 99.5593 102.216 98.1738C101.895 97.1747 99.3434 97.2 96.6374 98.8533Z" fill="white"/>
<path d="M112.096 97.5811C111.566 96.7578 111.105 95.4849 110.889 94.6915C110.669 93.809 110.883 93.6204 111.588 93.4087C114.619 92.3735 120.289 91.4375 124.381 91.1113C125.314 91.0228 125.914 91.441 126.177 92.2769C126.532 93.1976 126.697 93.8595 126.828 94.7462C126.919 95.724 126.668 96.0929 125.693 96.228C123.654 96.547 121.13 96.9781 118.743 97.492C118.161 99.3496 117.458 101.481 116.759 103.701C117.864 103.471 118.973 103.329 120.174 103.228C121.151 103.138 121.696 103.335 122.048 104.167C122.402 105.043 122.662 105.834 122.793 106.721C122.973 107.695 122.718 107.974 121.749 108.243C119.498 108.795 116.982 109.405 114.782 110.088C114.357 111.492 113.932 112.896 113.592 114.207C115.401 113.764 116.994 113.466 118.903 113.243C119.879 113.108 120.468 113.303 120.82 114.135C121.22 115.054 121.481 115.845 121.612 116.731C121.791 117.705 121.583 118.027 120.614 118.296C118.102 118.995 115.281 119.752 112.907 120.533C111.587 120.952 110.911 120.806 110.077 120.175C109.475 119.712 108.869 119.16 108.206 118.343C107.684 117.698 107.327 116.733 107.535 115.473C108.24 111.467 110.412 103.553 112.096 97.5811Z" fill="white"/>
<path d="M138.653 111.985C135.855 112.731 132.706 113.555 130.498 114.382C129.686 116.292 128.955 118.104 128.337 119.683C127.934 120.66 127.582 120.736 126.706 120.458C125.923 120.215 125.128 119.84 124.442 119.186C123.755 118.532 123.699 117.91 124.119 116.618C126.457 109.824 131.29 98.4595 134.529 92.2103C135.138 91.0355 135.885 90.3856 137.444 90.2888C139.268 90.1678 141.723 90.5717 143.196 91.02C144.303 91.3673 144.496 92.0213 144.42 93.1477C144.128 98.8158 144.079 109.611 144.248 117.879C144.296 118.905 144.054 119.195 143.077 119.284C142.1 119.373 140.929 119.3 140.288 119.135C139.371 118.904 139.052 118.351 138.931 117.019C138.802 115.598 138.738 113.902 138.653 111.985ZM133.332 107.632C135.04 107.208 136.792 106.781 138.468 106.494C138.416 102.962 138.44 99.2877 138.553 96.0984C137.088 99.1867 135.186 103.389 133.332 107.632Z" fill="white"/>
<path d="M164.524 90.3945C163.115 90.6568 161.266 91.0039 159.728 91.3227C157.959 98.4683 155.976 107.693 154.656 114.843C154.474 115.8 154.179 116.005 153.222 115.824C152.266 115.642 151.204 115.291 150.352 114.786C149.5 114.281 149.351 113.623 149.505 112.356C150.014 107.608 151.754 98.6738 153.107 92.8644C152.058 93.1388 151.012 93.4577 150.358 93.6514C149.441 93.9138 148.945 93.8693 148.384 93.1143C147.77 92.2745 147.104 90.8574 146.85 90.0298C146.591 89.1578 146.882 88.9075 147.577 88.6653C151.666 87.3535 158.178 86.0904 162.3 85.6265C163.322 85.5337 163.701 85.7679 164.052 86.1837C164.71 87.0195 165.219 88.1822 165.429 89.0139C165.647 89.9344 165.582 90.2089 164.524 90.3945Z" fill="white"/>
<path d="M134.183 133.824C133.821 133.824 133.528 133.545 133.486 133.183C133.458 132.792 133.737 132.458 134.127 132.43C134.322 132.416 153.358 130.758 170.303 126.731C170.665 126.633 171.055 126.87 171.139 127.246C171.222 127.623 170.999 127.999 170.623 128.082C153.581 132.137 134.434 133.796 134.239 133.81C134.225 133.81 134.197 133.81 134.183 133.81V133.824Z" fill="#FF6C76"/>
<path d="M178.488 125.95C178.195 125.95 177.917 125.755 177.819 125.462C177.708 125.1 177.917 124.71 178.279 124.598C181.122 123.734 183.672 122.815 185.887 121.881C186.236 121.728 186.654 121.881 186.807 122.243C186.96 122.592 186.807 123.01 186.445 123.163C184.201 124.124 181.595 125.058 178.697 125.936C178.627 125.964 178.558 125.964 178.488 125.964V125.95Z" fill="#FF6C76"/>
<path d="M18.7445 100.728C18.4797 100.728 18.2428 100.588 18.1174 100.338C17.9502 99.9891 18.0895 99.5711 18.4379 99.4039C18.6051 99.3203 35.8984 91.0429 60.3404 86.9321C60.7166 86.8763 61.079 87.1272 61.1486 87.5034C61.2183 87.8796 60.9535 88.242 60.5773 88.3116C36.3165 92.3806 19.2182 100.574 19.051 100.658C18.9535 100.7 18.856 100.728 18.7445 100.728Z" fill="#FF6C76"/>
</svg>
